<svg width="40" height="40" viewBox="0 0 40 40" fill="none" xmlns="http://www.w3.org/2000/svg">
<g id="target-05">
<g id="Icon">
<path d="M20 36.0714C28.876 36.0714 36.0714 28.876 36.0714 20C36.0714 11.124 28.876 3.92857 20 3.92857C11.124 3.92857 3.92859 11.124 3.92859 20C3.92859 28.876 11.124 36.0714 20 36.0714Z" stroke="#0C0E12" stroke-width="2" stroke-linecap="round" stroke-linejoin="round"/>
<path d="M20 29.6429C25.3256 29.6429 29.6429 25.3256 29.6429 20C29.6429 14.6744 25.3256 10.3571 20 10.3571C14.6744 10.3571 10.3572 14.6744 10.3572 20C10.3572 25.3256 14.6744 29.6429 20 29.6429Z" stroke="#0C0E12" stroke-width="2" stroke-linecap="round" stroke-linejoin="round"/>
<path d="M20 23.2143C21.7752 23.2143 23.2143 21.7752 23.2143 20C23.2143 18.2248 21.7752 16.7857 20 16.7857C18.2248 16.7857 16.7857 18.2248 16.7857 20C16.7857 21.7752 18.2248 23.2143 20 23.2143Z" stroke="#0C0E12" stroke-width="2" stroke-linecap="round" stroke-linejoin="round"/>
</g>
</g>
</svg>
